<?xml version="1.0" encoding="utf-8"?>
<!DOCTYPE svg
  PUBLIC '-//W3C//DTD SVG 1.0//EN'
  'http://www.w3.org/TR/2001/REC-SVG-20010904/DTD/svg10.dtd'>
<svg width="218.2677165354331" height="323.1496062992126" preserveAspectRatio="xMinYMin meet" viewBox="0 0 218 323" xmlns="http://www.w3.org/2000/svg" version="1.0" fill-rule="evenodd" xmlns:xlink="http://www.w3.org/1999/xlink">
	<title>...</title>
	<desc>...</desc>
	<clipPath id="clip">
		<rect x="0" y="0" width="218.2677165354331" height="323.1496062992126"/>
	</clipPath>
	<g id="group" transform="scale(1,-1) translate(0,-323)" style="clip-path: url(#clip)">
		<g transform=" matrix(0.436535,0,0,0.430866,0,0)">
			<rect x="0" y="0" width="500" height="750" style="stroke: none; stroke-linecap: butt; stroke-width: 1; fill: rgb(100%,100%,100%); fill-rule: evenodd;"/>
			<rect x="0.40088383838383834" y="0.40088383838383834" width="499.19823232323233" height="749.1982323232323" rx="19.079635642135642" ry="19.33595826687932" style="stroke: rgb(0%,0%,0%); stroke-linecap: butt; stroke-width: 0.8017676767676767; fill: none; fill-rule: evenodd;"/>
			<path d="M 18,723.5 L 482,723.5 Z" style="stroke: rgb(0%,0%,0%); stroke-linecap: butt; stroke-width: 0.7;"/>
			<path d="M 18,686.5 L 482,686.5 Z" style="stroke: rgb(0%,0%,0%); stroke-linecap: butt; stroke-width: 0.7;"/>
			<path d="M 18,662.5 L 482,662.5 Z" style="stroke: rgb(0%,0%,0%); stroke-linecap: butt; stroke-width: 0.7;"/>
			<path d="M 250,723.5 L 250,662.5 Z" style="stroke: rgb(0%,0%,0%); stroke-linecap: butt; stroke-width: 0.7;"/>
			<path d="M 190,723.5 L 190,686.5 Z" style="stroke: rgb(0%,0%,0%); stroke-linecap: butt; stroke-width: 0.7;"/>
			<path d="M 422,723.5 L 422,686.5 Z" style="stroke: rgb(0%,0%,0%); stroke-linecap: butt; stroke-width: 0.7;"/>
			<text x="25" y="706.5" style="font-family: CardRegular; font-size: 11.5px;fill: rgb(0%,0%,0%); stroke:none;" transform="translate(0,1413) scale(1,-1)">HOME:</text>
			<text x="257" y="706.5" style="font-family: CardRegular; font-size: 11.5px;fill: rgb(0%,0%,0%); stroke:none;" transform="translate(0,1413) scale(1,-1)">AWAY:</text>
			<text x="205.933837890625" y="706.5" style="font-family: CardRegular; font-size: 11.5px;fill: rgb(0%,0%,0%); stroke:none;" transform="translate(0,1413) scale(1,-1)">BALL</text>
			<text x="437.933837890625" y="706.5" style="font-family: CardRegular; font-size: 11.5px;fill: rgb(0%,0%,0%); stroke:none;" transform="translate(0,1413) scale(1,-1)">BALL</text>
			<text x="25" y="670.5" style="font-family: CardRegular; font-size: 11.5px;fill: rgb(0%,0%,0%); stroke:none;" transform="translate(0,1341) scale(1,-1)">JERSEY COLOUR:</text>
			<text x="257" y="670.5" style="font-family: CardRegular; font-size: 11.5px;fill: rgb(0%,0%,0%); stroke:none;" transform="translate(0,1341) scale(1,-1)">JERSEY COLOUR:</text>
			<text x="220.572265625" y="643.5" style="font-family: CardHeading; font-size: 19px;fill: rgb(0%,0%,0%); stroke:none;" transform="translate(0,1287) scale(1,-1)">1. HALF</text>
			<path d="M 18,638.5 L 482,638.5 Z" style="stroke: rgb(0%,0%,0%); stroke-linecap: butt; stroke-width: 0.7;"/>
			<text x="25" y="623.5" style="font-family: CardRegular; font-size: 11.5px;fill: rgb(0%,0%,0%); stroke:none;" transform="translate(0,1247) scale(1,-1)">GOALS (PLAYER / MIN)</text>
			<text x="257" y="623.5" style="font-family: CardRegular; font-size: 11.5px;fill: rgb(0%,0%,0%); stroke:none;" transform="translate(0,1247) scale(1,-1)">GOALS (PLAYER / MIN)</text>
			<path d="M 18,618.5 L 482,618.5 Z" style="stroke: rgb(0%,0%,0%); stroke-linecap: butt; stroke-width: 0.7;"/>
			<path d="M 18,584.9 L 482,584.9 Z" style="stroke: rgb(0%,0%,0%); stroke-linecap: butt; stroke-width: 0.7;"/>
			<path d="M 18,551.3 L 482,551.3 Z" style="stroke: rgb(0%,0%,0%); stroke-linecap: butt; stroke-width: 1.2;"/>
			<path d="M 18,517.7 L 482,517.7 Z" style="stroke: rgb(0%,0%,0%); stroke-linecap: butt; stroke-width: 0.7;"/>
			<path d="M 18,484.1 L 482,484.1 Z" style="stroke: rgb(0%,0%,0%); stroke-linecap: butt; stroke-width: 0.7;"/>
			<path d="M 47,618.5 L 47,484.1 Z" style="stroke: rgb(0%,0%,0%); stroke-linecap: butt; stroke-width: 0.7;"/>
			<path d="M 76,618.5 L 76,484.1 Z" style="stroke: rgb(0%,0%,0%); stroke-linecap: butt; stroke-width: 0.7;"/>
			<path d="M 105,618.5 L 105,484.1 Z" style="stroke: rgb(0%,0%,0%); stroke-linecap: butt; stroke-width: 0.7;"/>
			<path d="M 134,618.5 L 134,484.1 Z" style="stroke: rgb(0%,0%,0%); stroke-linecap: butt; stroke-width: 0.7;"/>
			<path d="M 163,618.5 L 163,484.1 Z" style="stroke: rgb(0%,0%,0%); stroke-linecap: butt; stroke-width: 0.7;"/>
			<path d="M 192,618.5 L 192,484.1 Z" style="stroke: rgb(0%,0%,0%); stroke-linecap: butt; stroke-width: 0.7;"/>
			<path d="M 221,618.5 L 221,484.1 Z" style="stroke: rgb(0%,0%,0%); stroke-linecap: butt; stroke-width: 0.7;"/>
			<path d="M 250,618.5 L 250,484.1 Z" style="stroke: rgb(0%,0%,0%); stroke-linecap: butt; stroke-width: 0.7;"/>
			<path d="M 279,618.5 L 279,484.1 Z" style="stroke: rgb(0%,0%,0%); stroke-linecap: butt; stroke-width: 0.7;"/>
			<path d="M 308,618.5 L 308,484.1 Z" style="stroke: rgb(0%,0%,0%); stroke-linecap: butt; stroke-width: 0.7;"/>
			<path d="M 337,618.5 L 337,484.1 Z" style="stroke: rgb(0%,0%,0%); stroke-linecap: butt; stroke-width: 0.7;"/>
			<path d="M 366,618.5 L 366,484.1 Z" style="stroke: rgb(0%,0%,0%); stroke-linecap: butt; stroke-width: 0.7;"/>
			<path d="M 395,618.5 L 395,484.1 Z" style="stroke: rgb(0%,0%,0%); stroke-linecap: butt; stroke-width: 0.7;"/>
			<path d="M 424,618.5 L 424,484.1 Z" style="stroke: rgb(0%,0%,0%); stroke-linecap: butt; stroke-width: 0.7;"/>
			<path d="M 453,618.5 L 453,484.1 Z" style="stroke: rgb(0%,0%,0%); stroke-linecap: butt; stroke-width: 0.7;"/>
			<path d="M 250,638.5 L 250,618.5 Z" style="stroke: rgb(0%,0%,0%); stroke-linecap: butt; stroke-width: 0.7;"/>
			<text x="220.572265625" y="465.1" style="font-family: CardHeading; font-size: 19px;fill: rgb(0%,0%,0%); stroke:none;" transform="translate(0,930) scale(1,-1)">2. HALF</text>
			<path d="M 18,460.1 L 482,460.1 Z" style="stroke: rgb(0%,0%,0%); stroke-linecap: butt; stroke-width: 0.7;"/>
			<text x="25" y="445.1" style="font-family: CardRegular; font-size: 11.5px;fill: rgb(0%,0%,0%); stroke:none;" transform="translate(0,890) scale(1,-1)">GOALS (PLAYER / MIN)</text>
			<text x="257" y="445.1" style="font-family: CardRegular; font-size: 11.5px;fill: rgb(0%,0%,0%); stroke:none;" transform="translate(0,890) scale(1,-1)">GOALS (PLAYER / MIN)</text>
			<path d="M 18,440.1 L 482,440.1 Z" style="stroke: rgb(0%,0%,0%); stroke-linecap: butt; stroke-width: 0.7;"/>
			<path d="M 18,406.5 L 482,406.5 Z" style="stroke: rgb(0%,0%,0%); stroke-linecap: butt; stroke-width: 0.7;"/>
			<path d="M 18,372.9 L 482,372.9 Z" style="stroke: rgb(0%,0%,0%); stroke-linecap: butt; stroke-width: 1.2;"/>
			<path d="M 18,339.3 L 482,339.3 Z" style="stroke: rgb(0%,0%,0%); stroke-linecap: butt; stroke-width: 0.7;"/>
			<path d="M 18,305.7 L 482,305.7 Z" style="stroke: rgb(0%,0%,0%); stroke-linecap: butt; stroke-width: 0.7;"/>
			<path d="M 47,440.1 L 47,305.7 Z" style="stroke: rgb(0%,0%,0%); stroke-linecap: butt; stroke-width: 0.7;"/>
			<path d="M 76,440.1 L 76,305.7 Z" style="stroke: rgb(0%,0%,0%); stroke-linecap: butt; stroke-width: 0.7;"/>
			<path d="M 105,440.1 L 105,305.7 Z" style="stroke: rgb(0%,0%,0%); stroke-linecap: butt; stroke-width: 0.7;"/>
			<path d="M 134,440.1 L 134,305.7 Z" style="stroke: rgb(0%,0%,0%); stroke-linecap: butt; stroke-width: 0.7;"/>
			<path d="M 163,440.1 L 163,305.7 Z" style="stroke: rgb(0%,0%,0%); stroke-linecap: butt; stroke-width: 0.7;"/>
			<path d="M 192,440.1 L 192,305.7 Z" style="stroke: rgb(0%,0%,0%); stroke-linecap: butt; stroke-width: 0.7;"/>
			<path d="M 221,440.1 L 221,305.7 Z" style="stroke: rgb(0%,0%,0%); stroke-linecap: butt; stroke-width: 0.7;"/>
			<path d="M 250,440.1 L 250,305.7 Z" style="stroke: rgb(0%,0%,0%); stroke-linecap: butt; stroke-width: 0.7;"/>
			<path d="M 279,440.1 L 279,305.7 Z" style="stroke: rgb(0%,0%,0%); stroke-linecap: butt; stroke-width: 0.7;"/>
			<path d="M 308,440.1 L 308,305.7 Z" style="stroke: rgb(0%,0%,0%); stroke-linecap: butt; stroke-width: 0.7;"/>
			<path d="M 337,440.1 L 337,305.7 Z" style="stroke: rgb(0%,0%,0%); stroke-linecap: butt; stroke-width: 0.7;"/>
			<path d="M 366,440.1 L 366,305.7 Z" style="stroke: rgb(0%,0%,0%); stroke-linecap: butt; stroke-width: 0.7;"/>
			<path d="M 395,440.1 L 395,305.7 Z" style="stroke: rgb(0%,0%,0%); stroke-linecap: butt; stroke-width: 0.7;"/>
			<path d="M 424,440.1 L 424,305.7 Z" style="stroke: rgb(0%,0%,0%); stroke-linecap: butt; stroke-width: 0.7;"/>
			<path d="M 453,440.1 L 453,305.7 Z" style="stroke: rgb(0%,0%,0%); stroke-linecap: butt; stroke-width: 0.7;"/>
			<path d="M 250,460.1 L 250,440.1 Z" style="stroke: rgb(0%,0%,0%); stroke-linecap: butt; stroke-width: 0.7;"/>
			<text x="180.647705078125" y="285.70000000000005" style="font-family: CardHeading; font-size: 21px;fill: rgb(0%,0%,0%); stroke:none;" transform="translate(0,571) scale(1,-1)">SUBSTITUTIONS</text>
			<path d="M 18,279.7 L 482,279.7 Z" style="stroke: rgb(0%,0%,0%); stroke-linecap: butt; stroke-width: 0.7;"/>
			<path d="M 18,261.7 L 482,261.7 Z" style="stroke: rgb(0%,0%,0%); stroke-linecap: butt; stroke-width: 0.7;"/>
			<path d="M 18,228.1 L 482,228.1 Z" style="stroke: rgb(0%,0%,0%); stroke-linecap: butt; stroke-width: 0.7;"/>
			<path d="M 18,194.5 L 482,194.5 Z" style="stroke: rgb(0%,0%,0%); stroke-linecap: butt; stroke-width: 0.7;"/>
			<path d="M 18,160.9 L 482,160.9 Z" style="stroke: rgb(0%,0%,0%); stroke-linecap: butt; stroke-width: 0.7;"/>
			<path d="M 18,127.3 L 482,127.3 Z" style="stroke: rgb(0%,0%,0%); stroke-linecap: butt; stroke-width: 0.7;"/>
			<path d="M 18,93.7 L 482,93.7 Z" style="stroke: rgb(0%,0%,0%); stroke-linecap: butt; stroke-width: 0.7;"/>
			<path d="M 18,60.1 L 482,60.1 Z" style="stroke: rgb(0%,0%,0%); stroke-linecap: butt; stroke-width: 0.7;"/>
			<path d="M 18,26.5 L 482,26.5 Z" style="stroke: rgb(0%,0%,0%); stroke-linecap: butt; stroke-width: 0.7;"/>
			<path d="M 95.333333,279.7 L 95.333333,26.5 Z" style="stroke: rgb(0%,0%,0%); stroke-linecap: butt; stroke-width: 0.7;"/>
			<path d="M 172.666667,279.7 L 172.666667,26.5 Z" style="stroke: rgb(0%,0%,0%); stroke-linecap: butt; stroke-width: 0.7;"/>
			<text x="44.529337565104164" y="266.70000000000005" style="font-family: CardRegular; font-size: 11.5px;fill: rgb(0%,0%,0%); stroke:none;" transform="translate(0,533) scale(1,-1)">OUT</text>
			<text x="128.25" y="266.70000000000005" style="font-family: CardRegular; font-size: 11.5px;fill: rgb(0%,0%,0%); stroke:none;" transform="translate(0,533) scale(1,-1)">IN</text>
			<text x="200.79353841145834" y="266.70000000000005" style="font-family: CardRegular; font-size: 11.5px;fill: rgb(0%,0%,0%); stroke:none;" transform="translate(0,533) scale(1,-1)">MIN</text>
			<path d="M 327.333333,279.7 L 327.333333,26.5 Z" style="stroke: rgb(0%,0%,0%); stroke-linecap: butt; stroke-width: 0.7;"/>
			<path d="M 404.666667,279.7 L 404.666667,26.5 Z" style="stroke: rgb(0%,0%,0%); stroke-linecap: butt; stroke-width: 0.7;"/>
			<text x="276.5293375651042" y="266.70000000000005" style="font-family: CardRegular; font-size: 11.5px;fill: rgb(0%,0%,0%); stroke:none;" transform="translate(0,533) scale(1,-1)">OUT</text>
			<text x="360.25" y="266.70000000000005" style="font-family: CardRegular; font-size: 11.5px;fill: rgb(0%,0%,0%); stroke:none;" transform="translate(0,533) scale(1,-1)">IN</text>
			<text x="432.79353841145837" y="266.70000000000005" style="font-family: CardRegular; font-size: 11.5px;fill: rgb(0%,0%,0%); stroke:none;" transform="translate(0,533) scale(1,-1)">MIN</text>
			<path d="M 250,279.7 L 250,26.5 Z" style="stroke: rgb(0%,0%,0%); stroke-linecap: butt; stroke-width: 0.7;"/>
		</g>
	</g>
</svg>
